<mxfile host="app.diagrams.net" modified="2023-01-31T06:48:33.239Z" agent="5.0 (Macintosh; Intel Mac OS X 10_15_7) AppleWebKit/537.36 (KHTML, like Gecko) Chrome/109.0.0.0 Safari/537.36" etag="jsRK2sN6PP4A0SEzYdFV" version="20.8.13" type="github">
  <diagram name="第 1 页" id="PvB-2guNxw29173V1UUJ">
    <mxGraphModel dx="1306" dy="836" grid="1" gridSize="10" guides="1" tooltips="1" connect="1" arrows="1" fold="1" page="1" pageScale="1" pageWidth="827" pageHeight="1169" math="0" shadow="0">
      <root>
        <mxCell id="0" />
        <mxCell id="1" parent="0" />
        <mxCell id="GNSvKw2Foi2-lAr6zdtV-5" style="edgeStyle=orthogonalEdgeStyle;rounded=0;orthogonalLoop=1;jettySize=auto;html=1;entryX=0.5;entryY=0;entryDx=0;entryDy=0;fontSize=16;" edge="1" parent="1" source="GNSvKw2Foi2-lAr6zdtV-1" target="GNSvKw2Foi2-lAr6zdtV-4">
          <mxGeometry relative="1" as="geometry" />
        </mxCell>
        <mxCell id="GNSvKw2Foi2-lAr6zdtV-1" value="freeway" style="rounded=0;whiteSpace=wrap;html=1;verticalAlign=top;fontStyle=1;fontSize=16;fillColor=#d5e8d4;strokeColor=#82b366;" vertex="1" parent="1">
          <mxGeometry x="240" y="330" width="370" height="210" as="geometry" />
        </mxCell>
        <mxCell id="GNSvKw2Foi2-lAr6zdtV-2" value="标准业务API" style="rounded=0;whiteSpace=wrap;html=1;" vertex="1" parent="1">
          <mxGeometry x="260" y="365" width="330" height="60" as="geometry" />
        </mxCell>
        <mxCell id="GNSvKw2Foi2-lAr6zdtV-3" value="标准业务SPI" style="rounded=0;whiteSpace=wrap;html=1;" vertex="1" parent="1">
          <mxGeometry x="260" y="450" width="330" height="60" as="geometry" />
        </mxCell>
        <mxCell id="GNSvKw2Foi2-lAr6zdtV-4" value="ng-iso-channel" style="rounded=0;whiteSpace=wrap;html=1;fontSize=16;fillColor=#d5e8d4;strokeColor=#82b366;fontStyle=1" vertex="1" parent="1">
          <mxGeometry x="365" y="650" width="120" height="60" as="geometry" />
        </mxCell>
        <mxCell id="GNSvKw2Foi2-lAr6zdtV-7" style="edgeStyle=orthogonalEdgeStyle;rounded=0;orthogonalLoop=1;jettySize=auto;html=1;entryX=0.5;entryY=0;entryDx=0;entryDy=0;fontSize=16;" edge="1" parent="1" source="GNSvKw2Foi2-lAr6zdtV-6" target="GNSvKw2Foi2-lAr6zdtV-1">
          <mxGeometry relative="1" as="geometry" />
        </mxCell>
        <mxCell id="GNSvKw2Foi2-lAr6zdtV-6" value="业务系统" style="rounded=0;whiteSpace=wrap;html=1;fontSize=16;" vertex="1" parent="1">
          <mxGeometry x="365" y="140" width="120" height="60" as="geometry" />
        </mxCell>
      </root>
    </mxGraphModel>
  </diagram>
</mxfile>
